<?xml version="1.0" standalone="no"?>
<!DOCTYPE svg PUBLIC "-//W3C//DTD SVG 20010904//EN"
 "http://www.w3.org/TR/2001/REC-SVG-20010904/DTD/svg10.dtd">
<svg version="1.0" xmlns="http://www.w3.org/2000/svg"
 width="740.000000pt" height="740.000000pt" viewBox="0 0 740.000000 740.000000"
 preserveAspectRatio="xMidYMid meet">

<g transform="translate(0.000000,740.000000) scale(0.100000,-0.100000)"
fill="#000000" stroke="none">
<path d="M4150 4705 l0 -175 235 0 235 0 2 48 c1 26 2 55 1 65 0 22 2 21 43
-4 l34 -21 0 -544 0 -544 -32 -20 -33 -20 -3 75 -3 75 -239 0 -240 0 0 -160 0
-160 240 0 240 0 0 49 c0 45 2 50 31 61 50 21 147 87 199 136 96 89 179 256
196 391 l6 53 98 0 c76 0 100 -3 111 -16 25 -30 71 -46 118 -41 36 4 52 13 78
41 28 30 33 43 33 83 -1 86 -48 133 -134 133 -46 0 -53 -4 -93 -45 l-43 -46
-82 3 -81 3 -18 90 c-21 108 -36 153 -86 248 -48 93 -190 237 -280 285 l-63
33 0 50 0 49 -235 0 -235 0 0 -175z m402 95 c2 -3 2 -51 0 -107 l-4 -103 -169
0 -169 0 0 103 c0 57 3 107 6 110 8 7 331 4 336 -3z m358 -395 c93 -185 103
-393 31 -586 -32 -84 -107 -194 -163 -238 -17 -13 -18 13 -18 505 l1 519 54
-60 c30 -33 73 -96 95 -140z m-362 -922 c-2 -60 -6 -107 -10 -105 -5 1 -80 2
-168 2 l-160 0 0 105 0 105 170 0 171 0 -3 -107z"/>
<path d="M4230 4700 l0 -90 155 0 156 0 -3 88 -3 87 -152 3 -153 3 0 -91z
m250 0 l0 -30 -95 0 -95 0 0 30 0 30 95 0 95 0 0 -30z"/>
<path d="M4780 4083 l1 -478 39 45 c163 184 199 505 83 733 -29 59 -98 163
-113 172 -7 4 -10 -154 -10 -472z m117 134 c19 -93 12 -237 -16 -329 -12 -37
-26 -70 -31 -73 -6 -4 -10 96 -9 277 l1 283 20 -43 c10 -24 26 -76 35 -115z"/>
<path d="M4373 3572 l-153 -3 0 -90 0 -90 156 3 156 3 0 88 c0 49 -2 89 -4 90
-1 1 -72 1 -155 -1z m97 -92 l0 -30 -90 0 c-49 0 -90 3 -90 8 0 4 -3 17 -6 30
-6 22 -5 22 90 22 l96 0 0 -30z"/>
<path d="M2483 4860 c-45 -18 -58 -95 -23 -130 17 -17 20 -33 20 -115 l0 -95
-76 0 c-71 0 -79 2 -111 30 -53 47 -113 37 -138 -23 -17 -42 -9 -83 23 -107
36 -29 75 -25 115 10 l35 30 218 0 c121 0 256 -3 302 -7 l84 -6 59 -88 c32
-49 59 -95 59 -104 0 -49 50 -83 87 -59 18 11 76 15 278 16 l255 1 0 43 0 44
-65 0 c-37 0 -65 -4 -65 -10 0 -6 -68 -10 -183 -10 -225 0 -234 3 -305 108
-27 40 -61 86 -76 102 l-26 30 -200 0 -200 0 -1 83 c-2 104 -2 104 22 128 25
25 26 90 2 112 -24 21 -63 28 -90 17z"/>
<path d="M3990 4827 c-135 -59 -247 -141 -330 -242 l-54 -65 -120 0 -121 0
-83 95 -84 95 -212 0 c-230 0 -236 -1 -236 -55 0 -53 8 -55 201 -55 l177 0 93
-100 92 -100 183 0 182 0 6 24 c11 46 275 274 299 259 4 -2 7 -15 7 -28 0 -17
-31 -53 -115 -131 l-115 -108 0 -321 0 -321 100 -99 c98 -95 101 -100 98 -138
l-3 -40 -77 61 c-43 34 -108 91 -146 127 l-69 65 -191 0 -191 0 -82 -90 -83
-90 -173 0 c-160 0 -175 -2 -193 -20 -11 -11 -20 -29 -20 -40 0 -11 9 -29 20
-40 19 -19 33 -20 220 -20 l199 0 83 95 83 95 138 0 137 0 72 -76 c40 -42 100
-96 134 -120 57 -41 181 -104 232 -119 l22 -6 0 166 0 166 -95 91 -95 90 0
260 0 260 96 91 95 92 -3 162 -3 162 -75 -32z"/>
<path d="M4076 4441 c-17 -19 -15 -22 63 -100 l81 -81 200 0 200 0 0 100 0
100 -263 0 c-247 0 -265 -1 -281 -19z"/>
<path d="M3981 4348 l-31 -30 0 -226 0 -226 73 -73 73 -73 262 0 262 0 0 95 0
95 -230 0 -230 0 0 158 -1 157 -73 77 -74 77 -31 -31z"/>
<path d="M2193 4286 c-22 -19 -28 -32 -28 -65 0 -50 26 -79 78 -88 32 -5 40
-2 66 26 l29 31 180 0 c169 0 181 -1 187 -19 4 -13 -3 -28 -20 -45 -66 -66 9
-162 98 -125 17 8 35 14 40 15 4 1 196 2 426 3 l419 1 4 50 3 50 -435 0 c-481
1 -470 -1 -470 63 0 65 -8 67 -232 67 l-200 0 -28 30 c-35 38 -78 40 -117 6z"/>
<path d="M1944 4050 c-31 -12 -54 -49 -54 -86 0 -24 8 -39 31 -58 39 -34 82
-34 115 -1 25 25 25 25 222 25 141 0 201 -3 210 -12 8 -8 12 -47 12 -110 l0
-98 -81 0 c-76 0 -84 2 -116 30 -53 47 -121 34 -144 -27 -34 -89 96 -165 147
-87 15 22 22 24 105 24 l89 0 0 -134 c0 -106 -3 -136 -15 -146 -21 -17 -19
-64 4 -84 29 -26 82 -18 101 17 14 25 13 30 -2 58 -15 25 -18 55 -18 160 l0
130 229 -3 c163 -2 232 1 242 9 8 6 37 50 64 97 l50 86 268 0 267 0 0 45 0 45
-60 0 c-33 0 -60 -4 -60 -10 0 -6 -81 -10 -223 -10 l-224 0 -46 -73 c-25 -40
-57 -85 -71 -100 l-25 -27 -206 0 -205 0 0 108 c0 187 7 182 -276 182 l-206 0
-35 30 c-35 31 -53 35 -89 20z"/>
<path d="M2827 3932 c-36 -40 -9 -102 44 -102 32 0 46 10 58 41 6 18 6 33 -3
50 -15 32 -74 39 -99 11z"/>
<path d="M1624 3020 c-49 -20 -54 -41 -54 -243 0 -186 0 -188 25 -212 l24 -25
221 0 220 0 0 50 0 50 -185 0 -185 0 0 140 0 140 183 0 182 0 0 50 0 49 -205
5 c-113 3 -215 1 -226 -4z"/>
<path d="M2194 3023 c-12 -2 -30 -13 -40 -25 -17 -18 -19 -39 -19 -220 0 -260
-25 -238 265 -238 290 0 265 -22 265 239 0 267 21 246 -248 247 -111 1 -212 0
-223 -3z m350 -234 c3 -72 4 -135 0 -140 -3 -5 -68 -9 -145 -9 l-139 0 0 140
0 140 138 0 139 0 7 -131z"/>
<path d="M2770 2783 l0 -243 58 0 57 0 -3 135 c-2 80 0 135 6 135 5 0 47 -55
92 -122 46 -68 86 -126 89 -130 3 -4 47 53 96 127 50 74 93 135 97 135 4 0 7
-10 6 -22 0 -13 0 -76 1 -140 l1 -118 55 0 55 0 0 245 0 245 -58 0 c-43 0 -60
-4 -69 -17 -80 -121 -170 -250 -175 -254 -4 -2 -47 55 -95 126 l-88 130 -63 5
-62 5 0 -242z"/>
<path d="M3498 3024 c-3 -3 -7 -113 -7 -245 l-2 -239 61 0 60 0 0 55 0 55 169
0 c226 0 215 -9 219 178 3 136 3 140 -21 168 l-25 29 -224 3 c-123 1 -227 0
-230 -4z m382 -189 l0 -75 -135 0 -135 0 0 75 0 75 135 0 135 0 0 -75z"/>
<path d="M4147 3020 c-58 -17 -57 -14 -57 -256 l0 -224 60 0 60 0 0 55 0 56
138 -3 137 -3 0 -53 0 -52 58 0 57 0 0 216 c0 121 -4 223 -10 234 -5 10 -24
23 -41 29 -37 13 -360 14 -402 1z m343 -185 l0 -75 -140 0 -140 0 0 75 0 75
140 0 140 0 0 -75z"/>
<path d="M5133 3023 l-33 -4 0 -147 -1 -147 -142 148 -142 147 -47 0 -46 0 -4
-227 c-2 -126 -2 -234 0 -240 3 -8 24 -13 58 -13 l54 0 0 152 0 152 31 -30
c17 -16 81 -84 141 -151 l110 -123 54 0 54 0 -2 243 -3 242 -25 1 c-14 1 -40
-1 -57 -3z"/>
<path d="M5290 3023 c0 -1 47 -74 105 -162 l105 -160 0 -81 0 -80 60 0 60 0 0
80 0 80 96 148 c53 81 99 153 101 160 4 9 -11 12 -56 12 l-61 0 -67 -105 c-38
-58 -70 -105 -73 -105 -3 1 -35 47 -71 104 l-67 104 -66 4 c-36 1 -66 2 -66 1z"/>
</g>
</svg>
